<svg enable-background="new 0 0 28.4 28.4" viewBox="0 0 28.4 28.4" xmlns="http://www.w3.org/2000/svg"><g fill="none" stroke-miterlimit="10"><path d="m-348.7-103.2h994.6v234h-994.6z" stroke="#fff" stroke-width="2.69"/><path d="m11.5 19.6 14-14.3c1.1-1.1 1.1-2.8 0-3.9s-2.8-1.1-3.9 0l-14 14.3c-2.9-.8-6 1-6.7 3.9s1 6 3.9 6.7 6-1 6.7-3.9c.2-.9.2-1.9 0-2.8z" stroke="#ff6d2d" stroke-width=".9"/><path d="m17.7 5.4 2 1.9" stroke="#ff6d2d" stroke-width=".9"/><path d="m13.8 9.2 2 2" stroke="#ff6d2d" stroke-width=".9"/><path d="m12.3 15-2.2-2.1" stroke="#ff6d2d" stroke-width=".9"/><circle cx="6.2" cy="21.1" r="3.8" stroke="#ff6d2d" stroke-width=".9"/></g><path d="m17.9 26.6-.4-1.2h-1.5l-.4 1.2h-1l1.7-4.9h.9l1.7 4.9zm-1.1-3.7-.5 1.7h1z" fill="#ff6d2d"/><path d="m20.4 21.7v4.9h-.9v-4.9z" fill="#ff6d2d"/><path d="m23.8 24.4 1.4 2.2h-1l-1.3-2.1h-.5v2.1h-.9v-4.9h1.8c1 0 1.5.6 1.5 1.4-.1.6-.5 1.1-1 1.3zm-.6-.8c.4 0 .6-.2.6-.6s-.2-.6-.6-.6h-.9v1.1h.9z" fill="#ff6d2d"/></svg>