<svg enable-background="new 0 0 28.4 28.4" viewBox="0 0 28.4 28.4" xmlns="http://www.w3.org/2000/svg"><g fill="none" stroke-miterlimit="10"><path d="m-304.5-103.2h994.6v234h-994.6z" stroke="#fff" stroke-width="2.69"/><path d="m11.5 19.6 14-14.3c1.1-1.1 1.1-2.8 0-3.9s-2.8-1.1-3.9 0l-14 14.3c-2.9-.8-6 1-6.7 3.9s1 6 3.9 6.7 6-1 6.7-3.9c.2-.9.2-1.9 0-2.8z" stroke="#ff6d2d" stroke-width=".9"/><path d="m17.7 5.4 2 1.9" stroke="#ff6d2d" stroke-width=".9"/><path d="m13.8 9.2 2 2" stroke="#ff6d2d" stroke-width=".9"/><path d="m12.3 15-2.2-2.1" stroke="#ff6d2d" stroke-width=".9"/><circle cx="6.2" cy="21.1" r="3.8" stroke="#ff6d2d" stroke-width=".9"/></g><path d="m14.6 26.6v-4.9h.9v1.9h2v-1.9h.9v4.9h-.9v-2.2h-2v2.2z" fill="#ff6d2d"/><path d="m18.9 27.4v-.2l1-1.3c.1-.2.2-.4.2-.5 0-.2-.1-.4-.3-.4s-.3.1-.4.4l-.5-.1c0-.2.1-.4.3-.5s.4-.2.6-.2c.5 0 .8.3.8.8 0 .2-.1.5-.2.7l-.7.9h1v.5h-1.8z" fill="#ff6d2d"/><path d="m23.4 21.6c.8 0 1.6.3 2 1.1.2.4.3.9.3 1.4 0 1.1-.5 1.9-1.2 2.2-.3.2-.7.3-1.1.3-.8 0-1.5-.3-2-1.1-.2-.4-.3-.9-.3-1.4 0-1.1.5-1.9 1.2-2.2.3-.2.7-.3 1.1-.3zm0 .9c-.4 0-.7.1-1 .4s-.4.7-.4 1.2c0 .6.1 1 .4 1.2.3.3.6.4 1 .4s.7-.1 1-.4.4-.7.4-1.2c0-.6-.1-1-.4-1.2-.3-.3-.6-.4-1-.4z" fill="#ff6d2d"/></svg>